<mxfile host="app.diagrams.net" modified="2020-12-16T10:44:22.361Z" agent="5.0 (Windows NT 10.0; Win64; x64) AppleWebKit/537.36 (KHTML, like Gecko) Chrome/87.0.4280.67 Safari/537.36 Edg/87.0.664.47" etag="2UbGoOXvoSL3epSgPx2h" version="14.0.3" type="github">
  <diagram id="GM0Qf-6jhBuJVT4b6BD3" name="Page-1">
    <mxGraphModel dx="1422" dy="714" grid="1" gridSize="10" guides="1" tooltips="1" connect="1" arrows="1" fold="1" page="1" pageScale="1" pageWidth="827" pageHeight="1169" math="0" shadow="0">
      <root>
        <mxCell id="0" />
        <mxCell id="1" parent="0" />
        <mxCell id="fVXDg6e6A_-EQV9Ac5Os-1" value="&lt;font style=&quot;font-size: 20px&quot;&gt;业务端&lt;/font&gt;" style="rounded=0;whiteSpace=wrap;html=1;" parent="1" vertex="1">
          <mxGeometry x="80" y="100" width="120" height="60" as="geometry" />
        </mxCell>
        <mxCell id="fVXDg6e6A_-EQV9Ac5Os-3" value="" style="endArrow=none;dashed=1;html=1;" parent="1" edge="1">
          <mxGeometry width="50" height="50" relative="1" as="geometry">
            <mxPoint x="140" y="550" as="sourcePoint" />
            <mxPoint x="139.5" y="160" as="targetPoint" />
            <Array as="points">
              <mxPoint x="139.5" y="250" />
            </Array>
          </mxGeometry>
        </mxCell>
        <mxCell id="fVXDg6e6A_-EQV9Ac5Os-4" value="&lt;font style=&quot;font-size: 19px&quot;&gt;中台登录组件&lt;/font&gt;" style="rounded=0;whiteSpace=wrap;html=1;" parent="1" vertex="1">
          <mxGeometry x="320" y="100" width="120" height="60" as="geometry" />
        </mxCell>
        <mxCell id="fVXDg6e6A_-EQV9Ac5Os-5" value="&lt;font style=&quot;font-size: 20px&quot;&gt;后端服务&lt;/font&gt;" style="rounded=0;whiteSpace=wrap;html=1;" parent="1" vertex="1">
          <mxGeometry x="560" y="100" width="120" height="60" as="geometry" />
        </mxCell>
        <mxCell id="fVXDg6e6A_-EQV9Ac5Os-6" value="" style="endArrow=none;dashed=1;html=1;" parent="1" source="fVXDg6e6A_-EQV9Ac5Os-15" edge="1">
          <mxGeometry width="50" height="50" relative="1" as="geometry">
            <mxPoint x="380" y="550" as="sourcePoint" />
            <mxPoint x="379.5" y="160" as="targetPoint" />
            <Array as="points" />
          </mxGeometry>
        </mxCell>
        <mxCell id="fVXDg6e6A_-EQV9Ac5Os-7" value="" style="endArrow=none;dashed=1;html=1;" parent="1" source="fVXDg6e6A_-EQV9Ac5Os-21" edge="1">
          <mxGeometry width="50" height="50" relative="1" as="geometry">
            <mxPoint x="620" y="550" as="sourcePoint" />
            <mxPoint x="619.5" y="160" as="targetPoint" />
            <Array as="points" />
          </mxGeometry>
        </mxCell>
        <mxCell id="fVXDg6e6A_-EQV9Ac5Os-8" value="" style="endArrow=classic;html=1;entryX=0.25;entryY=1;entryDx=0;entryDy=0;" parent="1" edge="1" target="fVXDg6e6A_-EQV9Ac5Os-15">
          <mxGeometry width="50" height="50" relative="1" as="geometry">
            <mxPoint x="140" y="280" as="sourcePoint" />
            <mxPoint x="380" y="280" as="targetPoint" />
            <Array as="points">
              <mxPoint x="190" y="280" />
              <mxPoint x="280" y="280" />
            </Array>
          </mxGeometry>
        </mxCell>
        <mxCell id="fVXDg6e6A_-EQV9Ac5Os-9" value="写一个登录页面承载登录组件" style="text;html=1;align=center;verticalAlign=middle;resizable=0;points=[];autosize=1;" parent="1" vertex="1">
          <mxGeometry x="175" y="200" width="170" height="20" as="geometry" />
        </mxCell>
        <mxCell id="fVXDg6e6A_-EQV9Ac5Os-10" value="" style="endArrow=classic;html=1;" parent="1" edge="1">
          <mxGeometry width="50" height="50" relative="1" as="geometry">
            <mxPoint x="380" y="220" as="sourcePoint" />
            <mxPoint x="140" y="220" as="targetPoint" />
          </mxGeometry>
        </mxCell>
        <mxCell id="fVXDg6e6A_-EQV9Ac5Os-12" value="进行登录操作" style="text;html=1;align=center;verticalAlign=middle;resizable=0;points=[];autosize=1;" parent="1" vertex="1">
          <mxGeometry x="210" y="255" width="90" height="20" as="geometry" />
        </mxCell>
        <mxCell id="fVXDg6e6A_-EQV9Ac5Os-14" value="" style="endArrow=classic;html=1;" parent="1" edge="1">
          <mxGeometry width="50" height="50" relative="1" as="geometry">
            <mxPoint x="390" y="274" as="sourcePoint" />
            <mxPoint x="610" y="274" as="targetPoint" />
          </mxGeometry>
        </mxCell>
        <mxCell id="fVXDg6e6A_-EQV9Ac5Os-15" value="" style="rounded=0;whiteSpace=wrap;html=1;direction=south;" parent="1" vertex="1">
          <mxGeometry x="370" y="250" width="20" height="120" as="geometry" />
        </mxCell>
        <mxCell id="fVXDg6e6A_-EQV9Ac5Os-21" value="" style="rounded=0;whiteSpace=wrap;html=1;direction=south;" parent="1" vertex="1">
          <mxGeometry x="610" y="250" width="20" height="60" as="geometry" />
        </mxCell>
        <mxCell id="fVXDg6e6A_-EQV9Ac5Os-23" value="" style="endArrow=none;dashed=1;html=1;" parent="1" edge="1">
          <mxGeometry width="50" height="50" relative="1" as="geometry">
            <mxPoint x="620" y="550" as="sourcePoint" />
            <mxPoint x="619.5" y="310" as="targetPoint" />
            <Array as="points">
              <mxPoint x="619.5" y="400" />
              <mxPoint x="620" y="340" />
            </Array>
          </mxGeometry>
        </mxCell>
        <mxCell id="fVXDg6e6A_-EQV9Ac5Os-24" value="" style="endArrow=classic;html=1;" parent="1" edge="1">
          <mxGeometry width="50" height="50" relative="1" as="geometry">
            <mxPoint x="490" y="289.5" as="sourcePoint" />
            <mxPoint x="390" y="289.5" as="targetPoint" />
            <Array as="points">
              <mxPoint x="610" y="289.5" />
            </Array>
          </mxGeometry>
        </mxCell>
        <mxCell id="fVXDg6e6A_-EQV9Ac5Os-25" value="getToken" style="text;html=1;align=center;verticalAlign=middle;resizable=0;points=[];autosize=1;" parent="1" vertex="1">
          <mxGeometry x="450" y="250" width="60" height="20" as="geometry" />
        </mxCell>
        <mxCell id="fVXDg6e6A_-EQV9Ac5Os-26" value="return token&lt;br&gt;" style="text;html=1;align=center;verticalAlign=middle;resizable=0;points=[];autosize=1;" parent="1" vertex="1">
          <mxGeometry x="440" y="290" width="80" height="20" as="geometry" />
        </mxCell>
        <mxCell id="fVXDg6e6A_-EQV9Ac5Os-27" value="" style="endArrow=classic;html=1;" parent="1" edge="1">
          <mxGeometry width="50" height="50" relative="1" as="geometry">
            <mxPoint x="380" y="400" as="sourcePoint" />
            <mxPoint x="156" y="400" as="targetPoint" />
          </mxGeometry>
        </mxCell>
        <mxCell id="fVXDg6e6A_-EQV9Ac5Os-28" value="返回一个登录成功，失败的回调事件" style="text;html=1;align=center;verticalAlign=middle;resizable=0;points=[];autosize=1;" parent="1" vertex="1">
          <mxGeometry x="155" y="380" width="210" height="20" as="geometry" />
        </mxCell>
        <mxCell id="fVXDg6e6A_-EQV9Ac5Os-31" value="" style="endArrow=classic;html=1;" parent="1" edge="1">
          <mxGeometry width="50" height="50" relative="1" as="geometry">
            <mxPoint x="395" y="320" as="sourcePoint" />
            <mxPoint x="410" y="350" as="targetPoint" />
            <Array as="points">
              <mxPoint x="440" y="320" />
              <mxPoint x="440" y="350" />
            </Array>
          </mxGeometry>
        </mxCell>
        <mxCell id="fVXDg6e6A_-EQV9Ac5Os-34" value="" style="endArrow=none;dashed=1;html=1;entryX=1;entryY=0.5;entryDx=0;entryDy=0;" parent="1" target="fVXDg6e6A_-EQV9Ac5Os-15" edge="1">
          <mxGeometry width="50" height="50" relative="1" as="geometry">
            <mxPoint x="380" y="550" as="sourcePoint" />
            <mxPoint x="414" y="400" as="targetPoint" />
          </mxGeometry>
        </mxCell>
        <mxCell id="fVXDg6e6A_-EQV9Ac5Os-35" value="" style="rounded=0;whiteSpace=wrap;html=1;direction=south;" parent="1" vertex="1">
          <mxGeometry x="380" y="330" width="20" height="30" as="geometry" />
        </mxCell>
        <mxCell id="fVXDg6e6A_-EQV9Ac5Os-36" value="将token，refreshToken&lt;br&gt;存储到localstroage" style="text;html=1;align=center;verticalAlign=middle;resizable=0;points=[];autosize=1;" parent="1" vertex="1">
          <mxGeometry x="440" y="325" width="140" height="30" as="geometry" />
        </mxCell>
        <mxCell id="fVXDg6e6A_-EQV9Ac5Os-37" value="" style="rounded=0;whiteSpace=wrap;html=1;direction=south;" parent="1" vertex="1">
          <mxGeometry x="125" y="370" width="25" height="120" as="geometry" />
        </mxCell>
        <mxCell id="fVXDg6e6A_-EQV9Ac5Os-38" value="统一封装内设置请求头&lt;br&gt;key值为Authorization&lt;br&gt;value值为Bearer user=token" style="text;html=1;align=center;verticalAlign=middle;resizable=0;points=[];autosize=1;" parent="1" vertex="1">
          <mxGeometry x="150" y="435" width="170" height="50" as="geometry" />
        </mxCell>
      </root>
    </mxGraphModel>
  </diagram>
</mxfile>
